<?xml version="1.0" encoding="UTF-8"?>
<svg id="_圖層_2" data-name="圖層 2" xmlns="http://www.w3.org/2000/svg" viewBox="0 0 141.73 141.73">
  <defs>
    <style>
      .cls-1 {
        fill: #a79d8c;
      }

      .cls-2 {
        fill: #edeae4;
      }
    </style>
  </defs>
  <circle class="cls-2" cx="70.87" cy="70.87" r="70.87"/>
  <g>
    <path class="cls-1" d="M95.02,103.42H46.72c-5.94,0-10.77-4.83-10.77-10.77V55.86c0-5.94,4.83-10.77,10.77-10.77h48.3c5.94,0,10.77,4.83,10.77,10.77v36.79c0,5.94-4.83,10.77-10.77,10.77ZM46.72,51.74c-2.27,0-4.12,1.85-4.12,4.12v36.79c0,2.27,1.85,4.12,4.12,4.12h48.3c2.27,0,4.12-1.85,4.12-4.12V55.86c0-2.27-1.85-4.12-4.12-4.12H46.72Z"/>
    <g>
      <path class="cls-1" d="M54.97,59.79c-1.84,0-3.33-1.49-3.33-3.33v-14.82c0-1.84,1.49-3.33,3.33-3.33s3.33,1.49,3.33,3.33v14.82c0,1.84-1.49,3.33-3.33,3.33Z"/>
      <path class="cls-1" d="M86.76,59.79c-1.84,0-3.33-1.49-3.33-3.33v-14.82c0-1.84,1.49-3.33,3.33-3.33s3.33,1.49,3.33,3.33v14.82c0,1.84-1.49,3.33-3.33,3.33Z"/>
    </g>
    <path class="cls-1" d="M102.46,70.62H39.27c-1.84,0-3.33-1.49-3.33-3.33s1.49-3.33,3.33-3.33h63.19c1.84,0,3.33,1.49,3.33,3.33s-1.49,3.33-3.33,3.33Z"/>
  </g>
</svg>