<?xml version="1.0" encoding="utf-8"?>
<!-- Generator: Adobe Illustrator 26.5.0, SVG Export Plug-In . SVG Version: 6.00 Build 0)  -->
<svg version="1.1" id="_圖層_2" xmlns="http://www.w3.org/2000/svg" xmlns:xlink="http://www.w3.org/1999/xlink" x="0px" y="0px"
	 viewBox="0 0 141.7 141.7" style="enable-background:new 0 0 141.7 141.7;" xml:space="preserve">
<style type="text/css">
	.st0{fill:#C9C1B2;}
</style>
<path class="st0" d="M102.8,128.2C102.8,128.2,102.7,128.2,102.8,128.2c-2.8,0-5.2-1.9-5.8-4.6L79.1,47.4l-9,37.8
	c-0.6,2.7-3,4.6-5.8,4.6H48.6c-2,0-3.9-1-5-2.7l-5.1-7.8l-4.9,8.1c-1.1,1.8-3,2.9-5.1,2.9H7.5c-3.3,0-6-2.7-6-6s2.7-6,6-6h17.6
	l8-13.3c1.1-1.8,2.9-2.8,5-2.9c2-0.1,4,1,5.1,2.7l8.6,13.1h7.9L73.4,20c0.6-2.7,3-4.6,5.8-4.6c0,0,0,0,0,0c2.8,0,5.2,1.9,5.8,4.6
	l17.9,76.6l3.4-13.8c0.7-2.7,3-4.5,5.8-4.5h22.4c3.3,0,6,2.7,6,6s-2.7,6-6,6h-17.8l-8.2,33.5C107.9,126.3,105.5,128.2,102.8,128.2z"
	/>
</svg>
