<?xml version="1.0" encoding="utf-8"?>
<!-- Generator: Adobe Illustrator 26.5.0, SVG Export Plug-In . SVG Version: 6.00 Build 0)  -->
<svg version="1.1" id="_圖層_2" xmlns="http://www.w3.org/2000/svg" xmlns:xlink="http://www.w3.org/1999/xlink" x="0px" y="0px"
	 viewBox="0 0 141.7 141.7" style="enable-background:new 0 0 141.7 141.7;" xml:space="preserve">
<style type="text/css">
	.st0{fill:#C9C1B2;}
</style>
<g>
	<path class="st0" d="M71,141.2c-30.3,0-54.9-24.6-54.9-54.9c0-12.3,4-24,11.6-33.7c0.1-0.1,0.2-0.3,0.3-0.4L64.6,5.5
		c1.5-2,3.9-3.1,6.4-3.1c2.4,0.2,4.9,1.1,6.5,3.1L114,52.2c0.1,0.1,0.2,0.2,0.3,0.4c7.6,9.7,11.6,21.4,11.6,33.8
		C125.9,116.6,101.3,141.2,71,141.2z M38.8,60c-0.1,0.1-0.2,0.3-0.3,0.4c-5.9,7.4-9,16.4-9,25.8c0,22.9,18.6,41.6,41.6,41.6
		s41.6-18.6,41.6-41.6c0-9.5-3.1-18.4-9-25.8c-0.1-0.1-0.2-0.3-0.3-0.4L71,18.9L38.8,60z M75.1,13.7L75.1,13.7
		C75.1,13.7,75.1,13.7,75.1,13.7z"/>
</g>
</svg>
