<?xml version="1.0" encoding="utf-8"?>
<!-- Generator: Adobe Illustrator 26.5.0, SVG Export Plug-In . SVG Version: 6.00 Build 0)  -->
<svg version="1.1" id="_圖層_2" xmlns="http://www.w3.org/2000/svg" xmlns:xlink="http://www.w3.org/1999/xlink" x="0px" y="0px"
	 viewBox="0 0 141.7 141.7" style="enable-background:new 0 0 141.7 141.7;" xml:space="preserve">
<style type="text/css">
	.st0{fill:#C9C1B2;}
</style>
<path class="st0" d="M71,133.4c-1.7,0-3.3-0.4-4.8-1.3c-6-3.5-27.3-16.7-47.2-38.8c-1.1-1.2-2.1-2.4-3.1-3.7l-0.2-0.3L11.3,83
	C1.7,67.4-0.9,50.6,4,36.5C7.9,25.4,16.3,17,27.7,12.9c19.5-7,34.7,1.7,43.2,10.7c8.5-9,23.7-17.8,43.2-10.7
	c11.5,4.1,19.9,12.5,23.8,23.6c4.9,14.1,2.3,30.9-7.1,46.2l-4.6,6.6c-1.2,1.5-2.2,2.8-3.3,4c-19.9,22.1-41.1,35.3-47.2,38.8
	C74.3,133,72.6,133.4,71,133.4z M26.3,81.7c0.8,1,1.6,2,2.5,2.9c17,18.9,35,30.8,42.3,35.2c7.2-4.4,25.2-16.3,42.3-35.2
	c0.9-1,1.7-2,2.6-3.1l4.2-6c7.1-11.4,9.3-24.5,5.7-34.8c-2.6-7.4-8.1-12.9-15.9-15.7c-21.1-7.6-32.7,11.6-33.2,12.5l-5.7,9.5
	l-5.6-9.5c-0.5-0.8-12.2-20-33.2-12.4c-7.8,2.8-13.3,8.2-15.9,15.7c-3.6,10.2-1.4,23.3,5.9,35.1L26.3,81.7z"/>
</svg>
