<?xml version="1.0" encoding="utf-8"?>
<!-- Generator: Adobe Illustrator 26.5.0, SVG Export Plug-In . SVG Version: 6.00 Build 0)  -->
<svg version="1.1" id="_圖層_2" xmlns="http://www.w3.org/2000/svg" xmlns:xlink="http://www.w3.org/1999/xlink" x="0px" y="0px"
	 viewBox="0 0 141.7 141.7" style="enable-background:new 0 0 141.7 141.7;" xml:space="preserve">
<style type="text/css">
	.st0{fill:#A0AFB7;}
</style>
<path class="st0" d="M15.9,87.5c1,1.3,2,2.5,3.1,3.7C40.4,115,63,129,69.3,132.6c1,0.6,2.3,0.6,3.4,0c6.3-3.6,29-17.7,50.3-41.4
	c1.1-1.2,2.1-2.5,3.1-3.7l4.9-6.9c16.2-26.3,11.7-57.1-14.7-66.6C86.9,3.4,71,30.9,71,30.9S55,3.4,25.7,14
	C-0.7,23.5-5.2,54.3,11,80.6L15.9,87.5z"/>
</svg>
