<?xml version="1.0" encoding="utf-8"?>
<!-- Generator: Adobe Illustrator 26.5.0, SVG Export Plug-In . SVG Version: 6.00 Build 0)  -->
<svg version="1.1" id="_圖層_2" xmlns="http://www.w3.org/2000/svg" xmlns:xlink="http://www.w3.org/1999/xlink" x="0px" y="0px"
	 viewBox="0 0 141.7 141.7" style="enable-background:new 0 0 141.7 141.7;" xml:space="preserve">
<style type="text/css">
	.st0{fill:#C9C1B2;}
</style>
<g>
	<g>
		<path class="st0" d="M70.9,140.3c-19,0-37-7.6-50.2-21.4C6.2,103.8-0.6,83.1,1.9,62.2c3.5-29,25-52.7,53.4-59.1
			c5.9-1.3,12-1.9,17.9-1.7c3.9,0.1,7.4,2.3,9.4,5.7c1.9,3.4,2,7.5,0.1,10.9c-3.4,6.1-4.6,13.1-3.5,20.1l0,0
			c2,13.1,12.5,23.8,25.5,26c6.8,1.2,13.5,0.2,19.5-2.8c3.5-1.7,7.6-1.5,10.9,0.6c3.3,2.1,5.3,5.7,5.3,9.6c-0.1,6-0.9,12.1-2.6,17.9
			c-7.8,28-32.5,48.4-61.3,50.7C74.6,140.2,72.8,140.3,70.9,140.3z M68.2,15.6c-3.2,0.2-6.5,0.6-9.7,1.3c-22.2,5-39.7,24.3-42.4,47
			c-2,16.7,3.4,33.2,14.9,45.2c11.5,12,27.7,18.2,44.4,16.9c22.9-1.8,42.5-18,48.8-40.4c0.9-3.2,1.5-6.4,1.8-9.6
			c-7.5,2.8-15.6,3.5-23.7,2.1c-18.9-3.2-34.2-18.8-37.1-37.8l0,0C63.9,31.8,64.9,23.4,68.2,15.6z"/>
	</g>
</g>
</svg>
